<mxfile host="www.draw.io" modified="2020-01-13T03:15:37.649Z" agent="Mozilla/5.0 (Windows NT 6.1; Win64; x64) AppleWebKit/537.36 (KHTML, like Gecko) Chrome/79.0.3945.88 Safari/537.36" etag="wUgmTo9Yj8A-rbArXk0J" version="12.4.9" type="github">
  <diagram id="JMm2xp8UbMph337cffVB" name="第 1 页">
    <mxGraphModel dx="1038" dy="572" grid="1" gridSize="10" guides="1" tooltips="1" connect="1" arrows="1" fold="1" page="1" pageScale="1" pageWidth="2339" pageHeight="3300" math="0" shadow="0">
      <root>
        <mxCell id="0"/>
        <mxCell id="1" parent="0"/>
        <mxCell id="giWhBIzOmJIIFQJ4k5uq-1" value="配置设置" style="rounded=1;fillColor=#0065FF;strokeColor=none;html=1;fontColor=#ffffff;align=center;verticalAlign=middle;whiteSpace=wrap;fontSize=18;fontStyle=1;arcSize=50" vertex="1" parent="1">
          <mxGeometry x="260" y="40" width="410" height="40" as="geometry"/>
        </mxCell>
        <mxCell id="giWhBIzOmJIIFQJ4k5uq-2" value="&lt;span style=&quot;color: rgb(89 , 103 , 128) ; font-size: 11px ; text-align: left&quot;&gt;candidate设置&lt;/span&gt;" style="dashed=0;html=1;rounded=1;fillColor=#DFE1E6;strokeColor=#DFE1E6;fontSize=12;align=center;fontStyle=1;strokeWidth=2;fontColor=#42526E" vertex="1" parent="1">
          <mxGeometry x="50" y="130" width="110" height="30" as="geometry"/>
        </mxCell>
        <mxCell id="giWhBIzOmJIIFQJ4k5uq-3" value="CandidateView" style="rounded=1;arcSize=9;fillColor=#F7F8F9;align=left;spacingLeft=5;strokeColor=#DEE1E6;html=1;strokeWidth=2;fontSize=12" vertex="1" parent="1">
          <mxGeometry x="270" y="195" width="125" height="30" as="geometry"/>
        </mxCell>
        <mxCell id="giWhBIzOmJIIFQJ4k5uq-4" value="名称" style="fillColor=none;strokeColor=none;html=1;fontSize=11;fontStyle=0;align=left;fontColor=#596780;fontStyle=1;fontSize=11" vertex="1" parent="1">
          <mxGeometry x="80" y="205" width="60" height="20" as="geometry"/>
        </mxCell>
        <mxCell id="giWhBIzOmJIIFQJ4k5uq-5" value="0.05" style="rounded=1;arcSize=9;fillColor=#F7F8F9;align=left;spacingLeft=5;strokeColor=#DEE1E6;html=1;strokeWidth=2;fontSize=12" vertex="1" parent="1">
          <mxGeometry x="270" y="235" width="125" height="30" as="geometry"/>
        </mxCell>
        <mxCell id="giWhBIzOmJIIFQJ4k5uq-6" value="最大字体" style="fillColor=none;strokeColor=none;html=1;fontSize=11;fontStyle=0;align=left;fontColor=#596780;fontStyle=1;fontSize=11" vertex="1" parent="1">
          <mxGeometry x="80" y="245" width="60" height="20" as="geometry"/>
        </mxCell>
        <mxCell id="giWhBIzOmJIIFQJ4k5uq-7" value="0.03426" style="rounded=1;arcSize=9;fillColor=#F7F8F9;align=left;spacingLeft=5;strokeColor=#DEE1E6;html=1;strokeWidth=2;fontSize=12" vertex="1" parent="1">
          <mxGeometry x="270" y="275" width="125" height="30" as="geometry"/>
        </mxCell>
        <mxCell id="giWhBIzOmJIIFQJ4k5uq-8" value="最小字体" style="fillColor=none;strokeColor=none;html=1;fontSize=11;fontStyle=0;align=left;fontColor=#596780;fontStyle=1;fontSize=11" vertex="1" parent="1">
          <mxGeometry x="80" y="285" width="60" height="20" as="geometry"/>
        </mxCell>
        <mxCell id="giWhBIzOmJIIFQJ4k5uq-11" value="CandidateCodeViewSpecial" style="rounded=1;arcSize=9;fillColor=#F7F8F9;align=left;spacingLeft=5;strokeColor=#DEE1E6;html=1;strokeWidth=2;fontSize=12" vertex="1" parent="1">
          <mxGeometry x="270" y="325" width="170" height="30" as="geometry"/>
        </mxCell>
        <mxCell id="giWhBIzOmJIIFQJ4k5uq-12" value="名称" style="fillColor=none;strokeColor=none;html=1;fontSize=11;fontStyle=0;align=left;fontColor=#596780;fontStyle=1;fontSize=11" vertex="1" parent="1">
          <mxGeometry x="80" y="335" width="60" height="20" as="geometry"/>
        </mxCell>
        <mxCell id="giWhBIzOmJIIFQJ4k5uq-13" value="Label_Typeface_~" style="rounded=1;arcSize=9;fillColor=#F7F8F9;align=left;spacingLeft=5;strokeColor=#DEE1E6;html=1;strokeWidth=2;fontSize=12" vertex="1" parent="1">
          <mxGeometry x="270" y="365" width="125" height="30" as="geometry"/>
        </mxCell>
        <mxCell id="giWhBIzOmJIIFQJ4k5uq-14" value="LABEL_TYPEFACES" style="fillColor=none;strokeColor=none;html=1;fontSize=11;fontStyle=0;align=left;fontColor=#596780;fontStyle=1;fontSize=11" vertex="1" parent="1">
          <mxGeometry x="80" y="375" width="60" height="20" as="geometry"/>
        </mxCell>
        <mxCell id="giWhBIzOmJIIFQJ4k5uq-18" value="CandidateCodeViewSpecial" style="rounded=1;arcSize=9;fillColor=#F7F8F9;align=left;spacingLeft=5;strokeColor=#DEE1E6;html=1;strokeWidth=2;fontSize=12" vertex="1" parent="1">
          <mxGeometry x="270" y="430" width="170" height="30" as="geometry"/>
        </mxCell>
        <mxCell id="giWhBIzOmJIIFQJ4k5uq-19" value="名称" style="fillColor=none;strokeColor=none;html=1;fontSize=11;fontStyle=0;align=left;fontColor=#596780;fontStyle=1;fontSize=11" vertex="1" parent="1">
          <mxGeometry x="80" y="440" width="60" height="20" as="geometry"/>
        </mxCell>
        <mxCell id="giWhBIzOmJIIFQJ4k5uq-20" value="~" style="rounded=1;arcSize=9;fillColor=#F7F8F9;align=left;spacingLeft=5;strokeColor=#DEE1E6;html=1;strokeWidth=2;fontSize=12" vertex="1" parent="1">
          <mxGeometry x="270" y="470" width="125" height="30" as="geometry"/>
        </mxCell>
        <mxCell id="giWhBIzOmJIIFQJ4k5uq-21" value="LABEL" style="fillColor=none;strokeColor=none;html=1;fontSize=11;fontStyle=0;align=left;fontColor=#596780;fontStyle=1;fontSize=11" vertex="1" parent="1">
          <mxGeometry x="80" y="480" width="60" height="20" as="geometry"/>
        </mxCell>
        <mxCell id="giWhBIzOmJIIFQJ4k5uq-22" value="hanyu-fuhao-Regular.ttf" style="rounded=1;arcSize=9;fillColor=#F7F8F9;align=left;spacingLeft=5;strokeColor=#DEE1E6;html=1;strokeWidth=2;fontSize=12" vertex="1" parent="1">
          <mxGeometry x="270" y="510" width="140" height="30" as="geometry"/>
        </mxCell>
        <mxCell id="giWhBIzOmJIIFQJ4k5uq-23" value="TYPEFACE" style="fillColor=none;strokeColor=none;html=1;fontSize=11;fontStyle=0;align=left;fontColor=#596780;fontStyle=1;fontSize=11" vertex="1" parent="1">
          <mxGeometry x="80" y="520" width="60" height="20" as="geometry"/>
        </mxCell>
        <mxCell id="giWhBIzOmJIIFQJ4k5uq-24" value="IME_Function_Switch_Language_98" style="rounded=1;arcSize=9;fillColor=#F7F8F9;align=left;spacingLeft=5;strokeColor=#DEE1E6;html=1;strokeWidth=2;fontSize=12" vertex="1" parent="1">
          <mxGeometry x="270" y="570" width="210" height="30" as="geometry"/>
        </mxCell>
        <mxCell id="giWhBIzOmJIIFQJ4k5uq-25" value="名称" style="fillColor=none;strokeColor=none;html=1;fontSize=11;fontStyle=0;align=left;fontColor=#596780;fontStyle=1;fontSize=11" vertex="1" parent="1">
          <mxGeometry x="80" y="580" width="60" height="20" as="geometry"/>
        </mxCell>
        <mxCell id="giWhBIzOmJIIFQJ4k5uq-26" value="ButtonBg_Float_Function" style="rounded=1;arcSize=9;fillColor=#F7F8F9;align=left;spacingLeft=5;strokeColor=#DEE1E6;html=1;strokeWidth=2;fontSize=12" vertex="1" parent="1">
          <mxGeometry x="270" y="610" width="150" height="30" as="geometry"/>
        </mxCell>
        <mxCell id="giWhBIzOmJIIFQJ4k5uq-27" value="BG_IMAGES" style="fillColor=none;strokeColor=none;html=1;fontSize=11;fontStyle=0;align=left;fontColor=#596780;fontStyle=1;fontSize=11" vertex="1" parent="1">
          <mxGeometry x="80" y="620" width="60" height="20" as="geometry"/>
        </mxCell>
        <mxCell id="giWhBIzOmJIIFQJ4k5uq-28" value="IME_SWITCH_LANGUAGE_98" style="rounded=1;arcSize=9;fillColor=#F7F8F9;align=left;spacingLeft=5;strokeColor=#DEE1E6;html=1;strokeWidth=2;fontSize=12" vertex="1" parent="1">
          <mxGeometry x="270" y="650" width="180" height="30" as="geometry"/>
        </mxCell>
        <mxCell id="giWhBIzOmJIIFQJ4k5uq-29" value="ICONS" style="fillColor=none;strokeColor=none;html=1;fontSize=11;fontStyle=0;align=left;fontColor=#596780;fontStyle=1;fontSize=11" vertex="1" parent="1">
          <mxGeometry x="80" y="660" width="60" height="20" as="geometry"/>
        </mxCell>
        <mxCell id="giWhBIzOmJIIFQJ4k5uq-30" value="韩语" style="rounded=1;arcSize=9;fillColor=#F7F8F9;align=left;spacingLeft=5;strokeColor=#DEE1E6;html=1;strokeWidth=2;fontSize=12" vertex="1" parent="1">
          <mxGeometry x="270" y="700" width="140" height="30" as="geometry"/>
        </mxCell>
        <mxCell id="giWhBIzOmJIIFQJ4k5uq-31" value="LABEL" style="fillColor=none;strokeColor=none;html=1;fontSize=11;fontStyle=0;align=left;fontColor=#596780;fontStyle=1;fontSize=11" vertex="1" parent="1">
          <mxGeometry x="80" y="705" width="60" height="20" as="geometry"/>
        </mxCell>
        <mxCell id="giWhBIzOmJIIFQJ4k5uq-32" value="&lt;div style=&quot;text-align: left&quot;&gt;&lt;font color=&quot;#596780&quot;&gt;&lt;span style=&quot;font-size: 11px&quot;&gt;images设置&lt;/span&gt;&lt;/font&gt;&lt;/div&gt;" style="dashed=0;html=1;rounded=1;fillColor=#DFE1E6;strokeColor=#DFE1E6;fontSize=12;align=center;fontStyle=1;strokeWidth=2;fontColor=#42526E" vertex="1" parent="1">
          <mxGeometry x="40" y="760" width="110" height="30" as="geometry"/>
        </mxCell>
        <mxCell id="giWhBIzOmJIIFQJ4k5uq-33" value="IME_SWITCH_LANGUAGE_98" style="rounded=1;arcSize=9;fillColor=#F7F8F9;align=left;spacingLeft=5;strokeColor=#DEE1E6;html=1;strokeWidth=2;fontSize=12" vertex="1" parent="1">
          <mxGeometry x="270" y="800" width="210" height="30" as="geometry"/>
        </mxCell>
        <mxCell id="giWhBIzOmJIIFQJ4k5uq-34" value="名称" style="fillColor=none;strokeColor=none;html=1;fontSize=11;fontStyle=0;align=left;fontColor=#596780;fontStyle=1;fontSize=11" vertex="1" parent="1">
          <mxGeometry x="80" y="810" width="60" height="20" as="geometry"/>
        </mxCell>
        <mxCell id="giWhBIzOmJIIFQJ4k5uq-35" value="ime_switch_language_korean.png" style="rounded=1;arcSize=9;fillColor=#F7F8F9;align=left;spacingLeft=5;strokeColor=#DEE1E6;html=1;strokeWidth=2;fontSize=12" vertex="1" parent="1">
          <mxGeometry x="270" y="840" width="250" height="30" as="geometry"/>
        </mxCell>
        <mxCell id="giWhBIzOmJIIFQJ4k5uq-36" value="NORMAL" style="fillColor=none;strokeColor=none;html=1;fontSize=11;fontStyle=0;align=left;fontColor=#596780;fontStyle=1;fontSize=11" vertex="1" parent="1">
          <mxGeometry x="80" y="850" width="60" height="20" as="geometry"/>
        </mxCell>
        <mxCell id="giWhBIzOmJIIFQJ4k5uq-37" value="ime_switch_language_korean.png" style="rounded=1;arcSize=9;fillColor=#F7F8F9;align=left;spacingLeft=5;strokeColor=#DEE1E6;html=1;strokeWidth=2;fontSize=12" vertex="1" parent="1">
          <mxGeometry x="270" y="880" width="250" height="30" as="geometry"/>
        </mxCell>
        <mxCell id="giWhBIzOmJIIFQJ4k5uq-38" value="PRESSED" style="fillColor=none;strokeColor=none;html=1;fontSize=11;fontStyle=0;align=left;fontColor=#596780;fontStyle=1;fontSize=11" vertex="1" parent="1">
          <mxGeometry x="80" y="890" width="60" height="20" as="geometry"/>
        </mxCell>
        <mxCell id="giWhBIzOmJIIFQJ4k5uq-39" value="ime_switch_language_korean_selected.png" style="rounded=1;arcSize=9;fillColor=#F7F8F9;align=left;spacingLeft=5;strokeColor=#DEE1E6;html=1;strokeWidth=2;fontSize=12" vertex="1" parent="1">
          <mxGeometry x="270" y="930" width="250" height="30" as="geometry"/>
        </mxCell>
        <mxCell id="giWhBIzOmJIIFQJ4k5uq-40" value="SELECTED" style="fillColor=none;strokeColor=none;html=1;fontSize=11;fontStyle=0;align=left;fontColor=#596780;fontStyle=1;fontSize=11" vertex="1" parent="1">
          <mxGeometry x="80" y="935" width="60" height="20" as="geometry"/>
        </mxCell>
      </root>
    </mxGraphModel>
  </diagram>
</mxfile>
